# xmcd
#
# Track frame offsets:
#	150
#	9172
#	21545
#	29462
#	37835
#	44485
#	57297
#	67760
#	84885
#	94480
#	109045
#	126797
#	139212
#	150087
#	158837
#	170292
#	185947
#	196250
#
# Disc length: 2769 seconds
#
# Revision: 1
# Processed by: cddbd v1.5.2PL0 Copyright (c) Steve Scherf et al.
# Submitted via: audiograbber 1.83.01
#
DISCID=e20acf12
DTITLE=Sons Of The Pioneers - Classic Cowboy Songs 1934-35 Recordings
DYEAR=2006
DGENRE=Country
TTITLE0=Ridin' Down The Canyon
TTITLE1=Blue Bonnet Girl
TTITLE2=Press Along To The Big Corral
TTITLE3=Sky Ball Paint
TTITLE4=Grab Your Saddle Horn And Blow
TTITLE5=Home On The Range
TTITLE6=Lone Star Trail
TTITLE7=Billy The Kid
TTITLE8=Round-Up In The Sky
TTITLE9=The Strawberry Roan
TTITLE10=Jesse James
TTITLE11=This Ain't The Same Old Range
TTITLE12=There's A Home In Wyomin'
TTITLE13=Down Along The Sleepy Rio Grande
TTITLE14=Ridin' The Range With You
TTITLE15=Cowboy's Dream (Roll On)
TTITLE16=That Pioneer Mother Of Mine
TTITLE17=When The Work's All Done This Fall
EXTD=
EXTT0=
EXTT1=
EXTT2=
EXTT3=
EXTT4=
EXTT5=
EXTT6=
EXTT7=
EXTT8=
EXTT9=
EXTT10=
EXTT11=
EXTT12=
EXTT13=
EXTT14=
EXTT15=
EXTT16=
EXTT17=
PLAYORDER=
